<mxfile host="app.diagrams.net" modified="2023-05-15T14:10:47.790Z" agent="Mozilla/5.0 (X11; Linux x86_64; rv:109.0) Gecko/20100101 Firefox/112.0" etag="D25FzHIWLnwNlaAXkn6V" version="21.3.0" type="github">
  <diagram name="Page-1" id="WUl9qC-J_M90wuT9A977">
    <mxGraphModel dx="2423" dy="1949" grid="1" gridSize="10" guides="1" tooltips="1" connect="1" arrows="1" fold="1" page="1" pageScale="1" pageWidth="850" pageHeight="1100" math="0" shadow="0">
      <root>
        <mxCell id="0" />
        <mxCell id="1" parent="0" />
        <mxCell id="dtRCtxeBVitpYyYdIylQ-1" value="users" style="swimlane;fontStyle=1;align=center;verticalAlign=middle;childLayout=stackLayout;horizontal=1;startSize=29;horizontalStack=0;resizeParent=1;resizeParentMax=0;resizeLast=0;collapsible=0;marginBottom=0;html=1;whiteSpace=wrap;" vertex="1" parent="1">
          <mxGeometry x="80" y="120" width="140" height="254" as="geometry" />
        </mxCell>
        <mxCell id="dtRCtxeBVitpYyYdIylQ-3" value="id INT PK" style="text;html=1;strokeColor=none;fillColor=none;align=left;verticalAlign=middle;spacingLeft=4;spacingRight=4;overflow=hidden;rotatable=0;points=[[0,0.5],[1,0.5]];portConstraint=eastwest;whiteSpace=wrap;" vertex="1" parent="dtRCtxeBVitpYyYdIylQ-1">
          <mxGeometry y="29" width="140" height="25" as="geometry" />
        </mxCell>
        <mxCell id="dtRCtxeBVitpYyYdIylQ-10" value="username STRING" style="text;html=1;strokeColor=none;fillColor=none;align=left;verticalAlign=middle;spacingLeft=4;spacingRight=4;overflow=hidden;rotatable=0;points=[[0,0.5],[1,0.5]];portConstraint=eastwest;whiteSpace=wrap;" vertex="1" parent="dtRCtxeBVitpYyYdIylQ-1">
          <mxGeometry y="54" width="140" height="25" as="geometry" />
        </mxCell>
        <mxCell id="dtRCtxeBVitpYyYdIylQ-84" value="role_id INT" style="text;html=1;strokeColor=none;fillColor=none;align=left;verticalAlign=middle;spacingLeft=4;spacingRight=4;overflow=hidden;rotatable=0;points=[[0,0.5],[1,0.5]];portConstraint=eastwest;whiteSpace=wrap;" vertex="1" parent="dtRCtxeBVitpYyYdIylQ-1">
          <mxGeometry y="79" width="140" height="25" as="geometry" />
        </mxCell>
        <mxCell id="dtRCtxeBVitpYyYdIylQ-13" value="url STRING" style="text;html=1;strokeColor=none;fillColor=none;align=left;verticalAlign=middle;spacingLeft=4;spacingRight=4;overflow=hidden;rotatable=0;points=[[0,0.5],[1,0.5]];portConstraint=eastwest;whiteSpace=wrap;" vertex="1" parent="dtRCtxeBVitpYyYdIylQ-1">
          <mxGeometry y="104" width="140" height="25" as="geometry" />
        </mxCell>
        <mxCell id="dtRCtxeBVitpYyYdIylQ-11" value="email STRING" style="text;html=1;strokeColor=none;fillColor=none;align=left;verticalAlign=middle;spacingLeft=4;spacingRight=4;overflow=hidden;rotatable=0;points=[[0,0.5],[1,0.5]];portConstraint=eastwest;whiteSpace=wrap;" vertex="1" parent="dtRCtxeBVitpYyYdIylQ-1">
          <mxGeometry y="129" width="140" height="25" as="geometry" />
        </mxCell>
        <mxCell id="dtRCtxeBVitpYyYdIylQ-12" value="password STRING" style="text;html=1;strokeColor=none;fillColor=none;align=left;verticalAlign=middle;spacingLeft=4;spacingRight=4;overflow=hidden;rotatable=0;points=[[0,0.5],[1,0.5]];portConstraint=eastwest;whiteSpace=wrap;" vertex="1" parent="dtRCtxeBVitpYyYdIylQ-1">
          <mxGeometry y="154" width="140" height="25" as="geometry" />
        </mxCell>
        <mxCell id="dtRCtxeBVitpYyYdIylQ-14" value="createdAt DATE" style="text;html=1;strokeColor=none;fillColor=none;align=left;verticalAlign=middle;spacingLeft=4;spacingRight=4;overflow=hidden;rotatable=0;points=[[0,0.5],[1,0.5]];portConstraint=eastwest;whiteSpace=wrap;" vertex="1" parent="dtRCtxeBVitpYyYdIylQ-1">
          <mxGeometry y="179" width="140" height="25" as="geometry" />
        </mxCell>
        <mxCell id="dtRCtxeBVitpYyYdIylQ-15" value="updatedAt DATE" style="text;html=1;strokeColor=none;fillColor=none;align=left;verticalAlign=middle;spacingLeft=4;spacingRight=4;overflow=hidden;rotatable=0;points=[[0,0.5],[1,0.5]];portConstraint=eastwest;whiteSpace=wrap;" vertex="1" parent="dtRCtxeBVitpYyYdIylQ-1">
          <mxGeometry y="204" width="140" height="25" as="geometry" />
        </mxCell>
        <mxCell id="dtRCtxeBVitpYyYdIylQ-16" value="deletedAt Date" style="text;html=1;strokeColor=none;fillColor=none;align=left;verticalAlign=middle;spacingLeft=4;spacingRight=4;overflow=hidden;rotatable=0;points=[[0,0.5],[1,0.5]];portConstraint=eastwest;whiteSpace=wrap;" vertex="1" parent="dtRCtxeBVitpYyYdIylQ-1">
          <mxGeometry y="229" width="140" height="25" as="geometry" />
        </mxCell>
        <mxCell id="dtRCtxeBVitpYyYdIylQ-4" value="posts" style="swimlane;fontStyle=1;align=center;verticalAlign=middle;childLayout=stackLayout;horizontal=1;startSize=29;horizontalStack=0;resizeParent=1;resizeParentMax=0;resizeLast=0;collapsible=0;marginBottom=0;html=1;whiteSpace=wrap;" vertex="1" parent="1">
          <mxGeometry x="660" y="120" width="140" height="204" as="geometry" />
        </mxCell>
        <mxCell id="dtRCtxeBVitpYyYdIylQ-5" value="id INT PK" style="text;html=1;strokeColor=none;fillColor=none;align=left;verticalAlign=middle;spacingLeft=4;spacingRight=4;overflow=hidden;rotatable=0;points=[[0,0.5],[1,0.5]];portConstraint=eastwest;whiteSpace=wrap;" vertex="1" parent="dtRCtxeBVitpYyYdIylQ-4">
          <mxGeometry y="29" width="140" height="25" as="geometry" />
        </mxCell>
        <mxCell id="dtRCtxeBVitpYyYdIylQ-20" value="title STRING" style="text;html=1;strokeColor=none;fillColor=none;align=left;verticalAlign=middle;spacingLeft=4;spacingRight=4;overflow=hidden;rotatable=0;points=[[0,0.5],[1,0.5]];portConstraint=eastwest;whiteSpace=wrap;" vertex="1" parent="dtRCtxeBVitpYyYdIylQ-4">
          <mxGeometry y="54" width="140" height="25" as="geometry" />
        </mxCell>
        <mxCell id="dtRCtxeBVitpYyYdIylQ-21" value="content STRING" style="text;html=1;strokeColor=none;fillColor=none;align=left;verticalAlign=middle;spacingLeft=4;spacingRight=4;overflow=hidden;rotatable=0;points=[[0,0.5],[1,0.5]];portConstraint=eastwest;whiteSpace=wrap;" vertex="1" parent="dtRCtxeBVitpYyYdIylQ-4">
          <mxGeometry y="79" width="140" height="25" as="geometry" />
        </mxCell>
        <mxCell id="dtRCtxeBVitpYyYdIylQ-97" value="is_draft BOOLEAN" style="text;html=1;strokeColor=none;fillColor=none;align=left;verticalAlign=middle;spacingLeft=4;spacingRight=4;overflow=hidden;rotatable=0;points=[[0,0.5],[1,0.5]];portConstraint=eastwest;whiteSpace=wrap;" vertex="1" parent="dtRCtxeBVitpYyYdIylQ-4">
          <mxGeometry y="104" width="140" height="25" as="geometry" />
        </mxCell>
        <mxCell id="dtRCtxeBVitpYyYdIylQ-22" value="createdAt DATE" style="text;html=1;strokeColor=none;fillColor=none;align=left;verticalAlign=middle;spacingLeft=4;spacingRight=4;overflow=hidden;rotatable=0;points=[[0,0.5],[1,0.5]];portConstraint=eastwest;whiteSpace=wrap;" vertex="1" parent="dtRCtxeBVitpYyYdIylQ-4">
          <mxGeometry y="129" width="140" height="25" as="geometry" />
        </mxCell>
        <mxCell id="dtRCtxeBVitpYyYdIylQ-23" value="updatedAt DATE" style="text;html=1;strokeColor=none;fillColor=none;align=left;verticalAlign=middle;spacingLeft=4;spacingRight=4;overflow=hidden;rotatable=0;points=[[0,0.5],[1,0.5]];portConstraint=eastwest;whiteSpace=wrap;" vertex="1" parent="dtRCtxeBVitpYyYdIylQ-4">
          <mxGeometry y="154" width="140" height="25" as="geometry" />
        </mxCell>
        <mxCell id="dtRCtxeBVitpYyYdIylQ-24" value="deletedAt DATE" style="text;html=1;strokeColor=none;fillColor=none;align=left;verticalAlign=middle;spacingLeft=4;spacingRight=4;overflow=hidden;rotatable=0;points=[[0,0.5],[1,0.5]];portConstraint=eastwest;whiteSpace=wrap;" vertex="1" parent="dtRCtxeBVitpYyYdIylQ-4">
          <mxGeometry y="179" width="140" height="25" as="geometry" />
        </mxCell>
        <mxCell id="dtRCtxeBVitpYyYdIylQ-6" value="comments" style="swimlane;fontStyle=1;align=center;verticalAlign=middle;childLayout=stackLayout;horizontal=1;startSize=29;horizontalStack=0;resizeParent=1;resizeParentMax=0;resizeLast=0;collapsible=0;marginBottom=0;html=1;whiteSpace=wrap;" vertex="1" parent="1">
          <mxGeometry x="330" y="45" width="220" height="204" as="geometry" />
        </mxCell>
        <mxCell id="dtRCtxeBVitpYyYdIylQ-7" value="id INT PK" style="text;html=1;strokeColor=none;fillColor=none;align=left;verticalAlign=middle;spacingLeft=4;spacingRight=4;overflow=hidden;rotatable=0;points=[[0,0.5],[1,0.5]];portConstraint=eastwest;whiteSpace=wrap;" vertex="1" parent="dtRCtxeBVitpYyYdIylQ-6">
          <mxGeometry y="29" width="220" height="25" as="geometry" />
        </mxCell>
        <mxCell id="dtRCtxeBVitpYyYdIylQ-25" value="content STRING" style="text;html=1;strokeColor=none;fillColor=none;align=left;verticalAlign=middle;spacingLeft=4;spacingRight=4;overflow=hidden;rotatable=0;points=[[0,0.5],[1,0.5]];portConstraint=eastwest;whiteSpace=wrap;" vertex="1" parent="dtRCtxeBVitpYyYdIylQ-6">
          <mxGeometry y="54" width="220" height="25" as="geometry" />
        </mxCell>
        <mxCell id="dtRCtxeBVitpYyYdIylQ-26" value="user_id INT" style="text;html=1;strokeColor=none;fillColor=none;align=left;verticalAlign=middle;spacingLeft=4;spacingRight=4;overflow=hidden;rotatable=0;points=[[0,0.5],[1,0.5]];portConstraint=eastwest;whiteSpace=wrap;" vertex="1" parent="dtRCtxeBVitpYyYdIylQ-6">
          <mxGeometry y="79" width="220" height="25" as="geometry" />
        </mxCell>
        <mxCell id="dtRCtxeBVitpYyYdIylQ-27" value="post_id INT" style="text;html=1;strokeColor=none;fillColor=none;align=left;verticalAlign=middle;spacingLeft=4;spacingRight=4;overflow=hidden;rotatable=0;points=[[0,0.5],[1,0.5]];portConstraint=eastwest;whiteSpace=wrap;" vertex="1" parent="dtRCtxeBVitpYyYdIylQ-6">
          <mxGeometry y="104" width="220" height="25" as="geometry" />
        </mxCell>
        <mxCell id="dtRCtxeBVitpYyYdIylQ-28" value="createdAt DATE" style="text;html=1;strokeColor=none;fillColor=none;align=left;verticalAlign=middle;spacingLeft=4;spacingRight=4;overflow=hidden;rotatable=0;points=[[0,0.5],[1,0.5]];portConstraint=eastwest;whiteSpace=wrap;" vertex="1" parent="dtRCtxeBVitpYyYdIylQ-6">
          <mxGeometry y="129" width="220" height="25" as="geometry" />
        </mxCell>
        <mxCell id="dtRCtxeBVitpYyYdIylQ-29" value="updatedAt DATE" style="text;html=1;strokeColor=none;fillColor=none;align=left;verticalAlign=middle;spacingLeft=4;spacingRight=4;overflow=hidden;rotatable=0;points=[[0,0.5],[1,0.5]];portConstraint=eastwest;whiteSpace=wrap;" vertex="1" parent="dtRCtxeBVitpYyYdIylQ-6">
          <mxGeometry y="154" width="220" height="25" as="geometry" />
        </mxCell>
        <mxCell id="dtRCtxeBVitpYyYdIylQ-30" value="deletedAt DATE" style="text;html=1;strokeColor=none;fillColor=none;align=left;verticalAlign=middle;spacingLeft=4;spacingRight=4;overflow=hidden;rotatable=0;points=[[0,0.5],[1,0.5]];portConstraint=eastwest;whiteSpace=wrap;" vertex="1" parent="dtRCtxeBVitpYyYdIylQ-6">
          <mxGeometry y="179" width="220" height="25" as="geometry" />
        </mxCell>
        <mxCell id="dtRCtxeBVitpYyYdIylQ-8" value="tags" style="swimlane;fontStyle=1;align=center;verticalAlign=middle;childLayout=stackLayout;horizontal=1;startSize=29;horizontalStack=0;resizeParent=1;resizeParentMax=0;resizeLast=0;collapsible=0;marginBottom=0;html=1;whiteSpace=wrap;" vertex="1" parent="1">
          <mxGeometry x="280" y="330" width="140" height="154" as="geometry" />
        </mxCell>
        <mxCell id="dtRCtxeBVitpYyYdIylQ-9" value="id INT PK" style="text;html=1;strokeColor=none;fillColor=none;align=left;verticalAlign=middle;spacingLeft=4;spacingRight=4;overflow=hidden;rotatable=0;points=[[0,0.5],[1,0.5]];portConstraint=eastwest;whiteSpace=wrap;" vertex="1" parent="dtRCtxeBVitpYyYdIylQ-8">
          <mxGeometry y="29" width="140" height="25" as="geometry" />
        </mxCell>
        <mxCell id="dtRCtxeBVitpYyYdIylQ-33" value="name STRING" style="text;html=1;strokeColor=none;fillColor=none;align=left;verticalAlign=middle;spacingLeft=4;spacingRight=4;overflow=hidden;rotatable=0;points=[[0,0.5],[1,0.5]];portConstraint=eastwest;whiteSpace=wrap;" vertex="1" parent="dtRCtxeBVitpYyYdIylQ-8">
          <mxGeometry y="54" width="140" height="25" as="geometry" />
        </mxCell>
        <mxCell id="dtRCtxeBVitpYyYdIylQ-34" value="createdAt DATE" style="text;html=1;strokeColor=none;fillColor=none;align=left;verticalAlign=middle;spacingLeft=4;spacingRight=4;overflow=hidden;rotatable=0;points=[[0,0.5],[1,0.5]];portConstraint=eastwest;whiteSpace=wrap;" vertex="1" parent="dtRCtxeBVitpYyYdIylQ-8">
          <mxGeometry y="79" width="140" height="25" as="geometry" />
        </mxCell>
        <mxCell id="dtRCtxeBVitpYyYdIylQ-35" value="updatedAt DATE" style="text;html=1;strokeColor=none;fillColor=none;align=left;verticalAlign=middle;spacingLeft=4;spacingRight=4;overflow=hidden;rotatable=0;points=[[0,0.5],[1,0.5]];portConstraint=eastwest;whiteSpace=wrap;" vertex="1" parent="dtRCtxeBVitpYyYdIylQ-8">
          <mxGeometry y="104" width="140" height="25" as="geometry" />
        </mxCell>
        <mxCell id="dtRCtxeBVitpYyYdIylQ-36" value="deletedAt DATE" style="text;html=1;strokeColor=none;fillColor=none;align=left;verticalAlign=middle;spacingLeft=4;spacingRight=4;overflow=hidden;rotatable=0;points=[[0,0.5],[1,0.5]];portConstraint=eastwest;whiteSpace=wrap;" vertex="1" parent="dtRCtxeBVitpYyYdIylQ-8">
          <mxGeometry y="129" width="140" height="25" as="geometry" />
        </mxCell>
        <mxCell id="dtRCtxeBVitpYyYdIylQ-31" value="post_tag" style="swimlane;fontStyle=1;align=center;verticalAlign=middle;childLayout=stackLayout;horizontal=1;startSize=29;horizontalStack=0;resizeParent=1;resizeParentMax=0;resizeLast=0;collapsible=0;marginBottom=0;html=1;whiteSpace=wrap;" vertex="1" parent="1">
          <mxGeometry x="490" y="350" width="140" height="104" as="geometry" />
        </mxCell>
        <mxCell id="dtRCtxeBVitpYyYdIylQ-32" value="id INT PK" style="text;html=1;strokeColor=none;fillColor=none;align=left;verticalAlign=middle;spacingLeft=4;spacingRight=4;overflow=hidden;rotatable=0;points=[[0,0.5],[1,0.5]];portConstraint=eastwest;whiteSpace=wrap;" vertex="1" parent="dtRCtxeBVitpYyYdIylQ-31">
          <mxGeometry y="29" width="140" height="25" as="geometry" />
        </mxCell>
        <mxCell id="dtRCtxeBVitpYyYdIylQ-37" value="tag_id INT" style="text;html=1;strokeColor=none;fillColor=none;align=left;verticalAlign=middle;spacingLeft=4;spacingRight=4;overflow=hidden;rotatable=0;points=[[0,0.5],[1,0.5]];portConstraint=eastwest;whiteSpace=wrap;" vertex="1" parent="dtRCtxeBVitpYyYdIylQ-31">
          <mxGeometry y="54" width="140" height="25" as="geometry" />
        </mxCell>
        <mxCell id="dtRCtxeBVitpYyYdIylQ-38" value="post_id INT" style="text;html=1;strokeColor=none;fillColor=none;align=left;verticalAlign=middle;spacingLeft=4;spacingRight=4;overflow=hidden;rotatable=0;points=[[0,0.5],[1,0.5]];portConstraint=eastwest;whiteSpace=wrap;" vertex="1" parent="dtRCtxeBVitpYyYdIylQ-31">
          <mxGeometry y="79" width="140" height="25" as="geometry" />
        </mxCell>
        <mxCell id="dtRCtxeBVitpYyYdIylQ-39" value="roles" style="swimlane;fontStyle=1;align=center;verticalAlign=middle;childLayout=stackLayout;horizontal=1;startSize=29;horizontalStack=0;resizeParent=1;resizeParentMax=0;resizeLast=0;collapsible=0;marginBottom=0;html=1;whiteSpace=wrap;" vertex="1" parent="1">
          <mxGeometry x="-110" y="-90" width="140" height="154" as="geometry" />
        </mxCell>
        <mxCell id="dtRCtxeBVitpYyYdIylQ-40" value="id INT PK" style="text;html=1;strokeColor=none;fillColor=none;align=left;verticalAlign=middle;spacingLeft=4;spacingRight=4;overflow=hidden;rotatable=0;points=[[0,0.5],[1,0.5]];portConstraint=eastwest;whiteSpace=wrap;" vertex="1" parent="dtRCtxeBVitpYyYdIylQ-39">
          <mxGeometry y="29" width="140" height="25" as="geometry" />
        </mxCell>
        <mxCell id="dtRCtxeBVitpYyYdIylQ-41" value="name STRING" style="text;html=1;strokeColor=none;fillColor=none;align=left;verticalAlign=middle;spacingLeft=4;spacingRight=4;overflow=hidden;rotatable=0;points=[[0,0.5],[1,0.5]];portConstraint=eastwest;whiteSpace=wrap;" vertex="1" parent="dtRCtxeBVitpYyYdIylQ-39">
          <mxGeometry y="54" width="140" height="25" as="geometry" />
        </mxCell>
        <mxCell id="dtRCtxeBVitpYyYdIylQ-45" value="createdAt DATE" style="text;html=1;strokeColor=none;fillColor=none;align=left;verticalAlign=middle;spacingLeft=4;spacingRight=4;overflow=hidden;rotatable=0;points=[[0,0.5],[1,0.5]];portConstraint=eastwest;whiteSpace=wrap;" vertex="1" parent="dtRCtxeBVitpYyYdIylQ-39">
          <mxGeometry y="79" width="140" height="25" as="geometry" />
        </mxCell>
        <mxCell id="dtRCtxeBVitpYyYdIylQ-46" value="updatedAt DATE" style="text;html=1;strokeColor=none;fillColor=none;align=left;verticalAlign=middle;spacingLeft=4;spacingRight=4;overflow=hidden;rotatable=0;points=[[0,0.5],[1,0.5]];portConstraint=eastwest;whiteSpace=wrap;" vertex="1" parent="dtRCtxeBVitpYyYdIylQ-39">
          <mxGeometry y="104" width="140" height="25" as="geometry" />
        </mxCell>
        <mxCell id="dtRCtxeBVitpYyYdIylQ-47" value="deletedAt Date" style="text;html=1;strokeColor=none;fillColor=none;align=left;verticalAlign=middle;spacingLeft=4;spacingRight=4;overflow=hidden;rotatable=0;points=[[0,0.5],[1,0.5]];portConstraint=eastwest;whiteSpace=wrap;" vertex="1" parent="dtRCtxeBVitpYyYdIylQ-39">
          <mxGeometry y="129" width="140" height="25" as="geometry" />
        </mxCell>
        <mxCell id="dtRCtxeBVitpYyYdIylQ-48" value="forgotPasswordTokens" style="swimlane;fontStyle=1;align=center;verticalAlign=middle;childLayout=stackLayout;horizontal=1;startSize=29;horizontalStack=0;resizeParent=1;resizeParentMax=0;resizeLast=0;collapsible=0;marginBottom=0;html=1;whiteSpace=wrap;" vertex="1" parent="1">
          <mxGeometry x="-330" y="494" width="200" height="179" as="geometry" />
        </mxCell>
        <mxCell id="dtRCtxeBVitpYyYdIylQ-49" value="id INT PK" style="text;html=1;strokeColor=none;fillColor=none;align=left;verticalAlign=middle;spacingLeft=4;spacingRight=4;overflow=hidden;rotatable=0;points=[[0,0.5],[1,0.5]];portConstraint=eastwest;whiteSpace=wrap;" vertex="1" parent="dtRCtxeBVitpYyYdIylQ-48">
          <mxGeometry y="29" width="200" height="25" as="geometry" />
        </mxCell>
        <mxCell id="dtRCtxeBVitpYyYdIylQ-50" value="token STRING" style="text;html=1;strokeColor=none;fillColor=none;align=left;verticalAlign=middle;spacingLeft=4;spacingRight=4;overflow=hidden;rotatable=0;points=[[0,0.5],[1,0.5]];portConstraint=eastwest;whiteSpace=wrap;" vertex="1" parent="dtRCtxeBVitpYyYdIylQ-48">
          <mxGeometry y="54" width="200" height="25" as="geometry" />
        </mxCell>
        <mxCell id="dtRCtxeBVitpYyYdIylQ-91" value="user_id INT" style="text;html=1;strokeColor=none;fillColor=none;align=left;verticalAlign=middle;spacingLeft=4;spacingRight=4;overflow=hidden;rotatable=0;points=[[0,0.5],[1,0.5]];portConstraint=eastwest;whiteSpace=wrap;" vertex="1" parent="dtRCtxeBVitpYyYdIylQ-48">
          <mxGeometry y="79" width="200" height="25" as="geometry" />
        </mxCell>
        <mxCell id="dtRCtxeBVitpYyYdIylQ-54" value="createdAt DATE" style="text;html=1;strokeColor=none;fillColor=none;align=left;verticalAlign=middle;spacingLeft=4;spacingRight=4;overflow=hidden;rotatable=0;points=[[0,0.5],[1,0.5]];portConstraint=eastwest;whiteSpace=wrap;" vertex="1" parent="dtRCtxeBVitpYyYdIylQ-48">
          <mxGeometry y="104" width="200" height="25" as="geometry" />
        </mxCell>
        <mxCell id="dtRCtxeBVitpYyYdIylQ-55" value="updatedAt DATE" style="text;html=1;strokeColor=none;fillColor=none;align=left;verticalAlign=middle;spacingLeft=4;spacingRight=4;overflow=hidden;rotatable=0;points=[[0,0.5],[1,0.5]];portConstraint=eastwest;whiteSpace=wrap;" vertex="1" parent="dtRCtxeBVitpYyYdIylQ-48">
          <mxGeometry y="129" width="200" height="25" as="geometry" />
        </mxCell>
        <mxCell id="dtRCtxeBVitpYyYdIylQ-56" value="deletedAt Date" style="text;html=1;strokeColor=none;fillColor=none;align=left;verticalAlign=middle;spacingLeft=4;spacingRight=4;overflow=hidden;rotatable=0;points=[[0,0.5],[1,0.5]];portConstraint=eastwest;whiteSpace=wrap;" vertex="1" parent="dtRCtxeBVitpYyYdIylQ-48">
          <mxGeometry y="154" width="200" height="25" as="geometry" />
        </mxCell>
        <mxCell id="dtRCtxeBVitpYyYdIylQ-66" value="confirmEmailTokens" style="swimlane;fontStyle=1;align=center;verticalAlign=middle;childLayout=stackLayout;horizontal=1;startSize=29;horizontalStack=0;resizeParent=1;resizeParentMax=0;resizeLast=0;collapsible=0;marginBottom=0;html=1;whiteSpace=wrap;" vertex="1" parent="1">
          <mxGeometry x="-330" y="280" width="200" height="179" as="geometry" />
        </mxCell>
        <mxCell id="dtRCtxeBVitpYyYdIylQ-67" value="id INT PK" style="text;html=1;strokeColor=none;fillColor=none;align=left;verticalAlign=middle;spacingLeft=4;spacingRight=4;overflow=hidden;rotatable=0;points=[[0,0.5],[1,0.5]];portConstraint=eastwest;whiteSpace=wrap;" vertex="1" parent="dtRCtxeBVitpYyYdIylQ-66">
          <mxGeometry y="29" width="200" height="25" as="geometry" />
        </mxCell>
        <mxCell id="dtRCtxeBVitpYyYdIylQ-68" value="token STRING" style="text;html=1;strokeColor=none;fillColor=none;align=left;verticalAlign=middle;spacingLeft=4;spacingRight=4;overflow=hidden;rotatable=0;points=[[0,0.5],[1,0.5]];portConstraint=eastwest;whiteSpace=wrap;" vertex="1" parent="dtRCtxeBVitpYyYdIylQ-66">
          <mxGeometry y="54" width="200" height="25" as="geometry" />
        </mxCell>
        <mxCell id="dtRCtxeBVitpYyYdIylQ-89" value="user_id INT" style="text;html=1;strokeColor=none;fillColor=none;align=left;verticalAlign=middle;spacingLeft=4;spacingRight=4;overflow=hidden;rotatable=0;points=[[0,0.5],[1,0.5]];portConstraint=eastwest;whiteSpace=wrap;" vertex="1" parent="dtRCtxeBVitpYyYdIylQ-66">
          <mxGeometry y="79" width="200" height="25" as="geometry" />
        </mxCell>
        <mxCell id="dtRCtxeBVitpYyYdIylQ-72" value="createdAt DATE" style="text;html=1;strokeColor=none;fillColor=none;align=left;verticalAlign=middle;spacingLeft=4;spacingRight=4;overflow=hidden;rotatable=0;points=[[0,0.5],[1,0.5]];portConstraint=eastwest;whiteSpace=wrap;" vertex="1" parent="dtRCtxeBVitpYyYdIylQ-66">
          <mxGeometry y="104" width="200" height="25" as="geometry" />
        </mxCell>
        <mxCell id="dtRCtxeBVitpYyYdIylQ-73" value="updatedAt DATE" style="text;html=1;strokeColor=none;fillColor=none;align=left;verticalAlign=middle;spacingLeft=4;spacingRight=4;overflow=hidden;rotatable=0;points=[[0,0.5],[1,0.5]];portConstraint=eastwest;whiteSpace=wrap;" vertex="1" parent="dtRCtxeBVitpYyYdIylQ-66">
          <mxGeometry y="129" width="200" height="25" as="geometry" />
        </mxCell>
        <mxCell id="dtRCtxeBVitpYyYdIylQ-74" value="deletedAt Date" style="text;html=1;strokeColor=none;fillColor=none;align=left;verticalAlign=middle;spacingLeft=4;spacingRight=4;overflow=hidden;rotatable=0;points=[[0,0.5],[1,0.5]];portConstraint=eastwest;whiteSpace=wrap;" vertex="1" parent="dtRCtxeBVitpYyYdIylQ-66">
          <mxGeometry y="154" width="200" height="25" as="geometry" />
        </mxCell>
        <mxCell id="dtRCtxeBVitpYyYdIylQ-75" value="refreshTokens" style="swimlane;fontStyle=1;align=center;verticalAlign=middle;childLayout=stackLayout;horizontal=1;startSize=29;horizontalStack=0;resizeParent=1;resizeParentMax=0;resizeLast=0;collapsible=0;marginBottom=0;html=1;whiteSpace=wrap;" vertex="1" parent="1">
          <mxGeometry x="-330" y="70" width="200" height="179" as="geometry" />
        </mxCell>
        <mxCell id="dtRCtxeBVitpYyYdIylQ-76" value="id INT PK" style="text;html=1;strokeColor=none;fillColor=none;align=left;verticalAlign=middle;spacingLeft=4;spacingRight=4;overflow=hidden;rotatable=0;points=[[0,0.5],[1,0.5]];portConstraint=eastwest;whiteSpace=wrap;" vertex="1" parent="dtRCtxeBVitpYyYdIylQ-75">
          <mxGeometry y="29" width="200" height="25" as="geometry" />
        </mxCell>
        <mxCell id="dtRCtxeBVitpYyYdIylQ-77" value="token STRING" style="text;html=1;strokeColor=none;fillColor=none;align=left;verticalAlign=middle;spacingLeft=4;spacingRight=4;overflow=hidden;rotatable=0;points=[[0,0.5],[1,0.5]];portConstraint=eastwest;whiteSpace=wrap;" vertex="1" parent="dtRCtxeBVitpYyYdIylQ-75">
          <mxGeometry y="54" width="200" height="25" as="geometry" />
        </mxCell>
        <mxCell id="dtRCtxeBVitpYyYdIylQ-86" value="user_id INT" style="text;html=1;strokeColor=none;fillColor=none;align=left;verticalAlign=middle;spacingLeft=4;spacingRight=4;overflow=hidden;rotatable=0;points=[[0,0.5],[1,0.5]];portConstraint=eastwest;whiteSpace=wrap;" vertex="1" parent="dtRCtxeBVitpYyYdIylQ-75">
          <mxGeometry y="79" width="200" height="25" as="geometry" />
        </mxCell>
        <mxCell id="dtRCtxeBVitpYyYdIylQ-81" value="createdAt DATE" style="text;html=1;strokeColor=none;fillColor=none;align=left;verticalAlign=middle;spacingLeft=4;spacingRight=4;overflow=hidden;rotatable=0;points=[[0,0.5],[1,0.5]];portConstraint=eastwest;whiteSpace=wrap;" vertex="1" parent="dtRCtxeBVitpYyYdIylQ-75">
          <mxGeometry y="104" width="200" height="25" as="geometry" />
        </mxCell>
        <mxCell id="dtRCtxeBVitpYyYdIylQ-82" value="updatedAt DATE" style="text;html=1;strokeColor=none;fillColor=none;align=left;verticalAlign=middle;spacingLeft=4;spacingRight=4;overflow=hidden;rotatable=0;points=[[0,0.5],[1,0.5]];portConstraint=eastwest;whiteSpace=wrap;" vertex="1" parent="dtRCtxeBVitpYyYdIylQ-75">
          <mxGeometry y="129" width="200" height="25" as="geometry" />
        </mxCell>
        <mxCell id="dtRCtxeBVitpYyYdIylQ-83" value="deletedAt Date" style="text;html=1;strokeColor=none;fillColor=none;align=left;verticalAlign=middle;spacingLeft=4;spacingRight=4;overflow=hidden;rotatable=0;points=[[0,0.5],[1,0.5]];portConstraint=eastwest;whiteSpace=wrap;" vertex="1" parent="dtRCtxeBVitpYyYdIylQ-75">
          <mxGeometry y="154" width="200" height="25" as="geometry" />
        </mxCell>
        <mxCell id="dtRCtxeBVitpYyYdIylQ-85" style="edgeStyle=orthogonalEdgeStyle;rounded=0;orthogonalLoop=1;jettySize=auto;html=1;entryX=1;entryY=0.5;entryDx=0;entryDy=0;" edge="1" parent="1" source="dtRCtxeBVitpYyYdIylQ-84" target="dtRCtxeBVitpYyYdIylQ-40">
          <mxGeometry relative="1" as="geometry" />
        </mxCell>
        <mxCell id="dtRCtxeBVitpYyYdIylQ-87" style="edgeStyle=orthogonalEdgeStyle;rounded=0;orthogonalLoop=1;jettySize=auto;html=1;entryX=0;entryY=0.5;entryDx=0;entryDy=0;" edge="1" parent="1" source="dtRCtxeBVitpYyYdIylQ-86" target="dtRCtxeBVitpYyYdIylQ-3">
          <mxGeometry relative="1" as="geometry" />
        </mxCell>
        <mxCell id="dtRCtxeBVitpYyYdIylQ-90" style="edgeStyle=orthogonalEdgeStyle;rounded=0;orthogonalLoop=1;jettySize=auto;html=1;entryX=0;entryY=0.5;entryDx=0;entryDy=0;" edge="1" parent="1" source="dtRCtxeBVitpYyYdIylQ-89" target="dtRCtxeBVitpYyYdIylQ-3">
          <mxGeometry relative="1" as="geometry" />
        </mxCell>
        <mxCell id="dtRCtxeBVitpYyYdIylQ-92" style="edgeStyle=orthogonalEdgeStyle;rounded=0;orthogonalLoop=1;jettySize=auto;html=1;entryX=0;entryY=0.5;entryDx=0;entryDy=0;" edge="1" parent="1" source="dtRCtxeBVitpYyYdIylQ-91" target="dtRCtxeBVitpYyYdIylQ-3">
          <mxGeometry relative="1" as="geometry" />
        </mxCell>
        <mxCell id="dtRCtxeBVitpYyYdIylQ-93" style="edgeStyle=orthogonalEdgeStyle;rounded=0;orthogonalLoop=1;jettySize=auto;html=1;entryX=0;entryY=0.5;entryDx=0;entryDy=0;" edge="1" parent="1" source="dtRCtxeBVitpYyYdIylQ-27" target="dtRCtxeBVitpYyYdIylQ-5">
          <mxGeometry relative="1" as="geometry" />
        </mxCell>
        <mxCell id="dtRCtxeBVitpYyYdIylQ-94" style="edgeStyle=orthogonalEdgeStyle;rounded=0;orthogonalLoop=1;jettySize=auto;html=1;entryX=1;entryY=0.5;entryDx=0;entryDy=0;" edge="1" parent="1" source="dtRCtxeBVitpYyYdIylQ-26" target="dtRCtxeBVitpYyYdIylQ-3">
          <mxGeometry relative="1" as="geometry" />
        </mxCell>
        <mxCell id="dtRCtxeBVitpYyYdIylQ-95" style="edgeStyle=orthogonalEdgeStyle;rounded=0;orthogonalLoop=1;jettySize=auto;html=1;entryX=0;entryY=0.5;entryDx=0;entryDy=0;" edge="1" parent="1" source="dtRCtxeBVitpYyYdIylQ-38" target="dtRCtxeBVitpYyYdIylQ-5">
          <mxGeometry relative="1" as="geometry" />
        </mxCell>
        <mxCell id="dtRCtxeBVitpYyYdIylQ-96" style="edgeStyle=orthogonalEdgeStyle;rounded=0;orthogonalLoop=1;jettySize=auto;html=1;entryX=1;entryY=0.5;entryDx=0;entryDy=0;" edge="1" parent="1" source="dtRCtxeBVitpYyYdIylQ-32" target="dtRCtxeBVitpYyYdIylQ-9">
          <mxGeometry relative="1" as="geometry" />
        </mxCell>
      </root>
    </mxGraphModel>
  </diagram>
</mxfile>
